<?xml version="1.0" standalone="no"?>
<!DOCTYPE svg PUBLIC "-//W3C//DTD SVG 20010904//EN"
 "http://www.w3.org/TR/2001/REC-SVG-20010904/DTD/svg10.dtd">
<svg version="1.0" xmlns="http://www.w3.org/2000/svg"
 width="900.000000pt" height="852.000000pt" viewBox="0 0 900.000000 852.000000"
 preserveAspectRatio="xMidYMid meet">
<metadata>
Created by potrace 1.10, written by Peter Selinger 2001-2011
</metadata>
<g transform="translate(0.000000,852.000000) scale(0.100000,-0.100000)"
fill="#000000" stroke="none">
<path d="M2910 8415 c-8 -2 -51 -9 -95 -15 -149 -22 -274 -52 -391 -94 -136
-49 -361 -176 -494 -277 -78 -59 -324 -305 -375 -374 -16 -22 -46 -62 -66 -90
-20 -27 -45 -64 -56 -81 -10 -18 -47 -81 -83 -141 -36 -59 -74 -126 -84 -148
-11 -22 -29 -56 -40 -75 -19 -33 -37 -77 -87 -220 -12 -36 -33 -92 -45 -125
-22 -58 -113 -422 -135 -537 -10 -53 -13 -59 -58 -86 -59 -37 -219 -188 -265
-251 -19 -26 -52 -83 -74 -126 -35 -71 -55 -123 -107 -285 -68 -212 -61 -690
15 -1025 62 -275 77 -595 40 -848 -23 -157 -46 -248 -114 -447 -34 -99 -56
-167 -76 -235 -4 -16 -18 -55 -30 -85 -33 -85 -47 -136 -68 -255 -38 -211 -47
-335 -33 -469 14 -138 37 -269 53 -306 6 -14 14 -41 18 -60 30 -137 149 -378
297 -602 161 -246 370 -452 587 -579 32 -19 70 -42 85 -51 51 -32 414 -208
430 -208 5 0 35 -12 67 -26 65 -29 219 -82 274 -94 19 -4 78 -19 130 -33 52
-13 163 -32 245 -41 298 -32 1122 -47 1364 -26 321 29 607 90 811 172 52 21
98 38 103 38 8 0 96 41 127 60 8 5 49 25 90 45 97 48 119 60 133 74 6 6 17 11
24 11 7 0 43 21 81 47 37 26 81 56 97 67 17 12 32 23 35 26 3 3 32 27 65 52
75 58 247 234 352 362 88 107 273 436 273 487 0 13 7 33 15 43 8 11 15 32 15
48 0 15 6 45 14 65 25 65 66 478 66 662 0 167 -34 458 -65 561 -40 129 -56
181 -77 238 -30 84 -21 93 104 102 89 7 111 11 238 46 75 21 194 68 317 126
56 26 109 48 118 48 21 0 471 -429 668 -638 50 -54 77 -90 77 -105 0 -15 -30
-58 -80 -117 -44 -52 -80 -103 -80 -114 0 -14 94 -114 273 -293 235 -235 276
-273 302 -273 44 0 186 -29 200 -40 8 -7 14 -52 17 -124 4 -106 6 -117 32
-150 35 -46 67 -62 141 -71 68 -7 139 14 199 60 18 14 36 25 39 25 3 0 25 12
49 27 24 16 52 33 63 40 144 85 262 161 285 185 16 15 39 48 51 72 19 38 21
56 17 132 -8 156 -8 157 -412 559 -193 193 -564 559 -824 813 -341 336 -472
470 -472 486 0 12 28 72 63 132 34 61 69 130 77 154 7 25 20 54 27 65 7 11 13
29 13 40 0 11 7 33 15 49 8 15 15 43 15 61 0 17 7 54 15 81 36 120 -6 311 -88
403 -23 25 -121 74 -197 98 -94 29 -249 43 -343 31 -124 -15 -128 -12 -156
103 -97 399 -351 772 -707 1040 -54 41 -106 79 -115 84 -10 6 -56 34 -103 63
-87 53 -171 95 -258 127 -58 21 -68 37 -97 145 -13 47 -27 90 -32 96 -5 6 -20
39 -33 75 -131 346 -416 753 -722 1032 -64 59 -123 107 -129 107 -7 0 -20 10
-31 21 -16 18 -177 130 -239 166 -31 18 -247 124 -275 135 -14 6 -38 16 -55
23 -16 7 -55 21 -85 30 -30 10 -80 26 -110 36 -30 10 -84 23 -120 29 -36 6
-100 18 -143 26 -68 12 -445 19 -497 9z m418 -220 c141 -21 250 -43 342 -70
117 -34 316 -123 419 -187 51 -32 95 -58 97 -58 3 0 55 -38 118 -85 124 -93
357 -325 454 -453 57 -75 182 -259 182 -268 0 -2 12 -23 27 -47 43 -67 143
-259 143 -275 0 -4 7 -20 16 -37 21 -40 44 -106 44 -127 0 -12 -10 -19 -32
-22 -62 -9 -225 -14 -237 -7 -12 8 -51 79 -51 93 0 14 -120 251 -135 268 -8 9
-15 20 -15 24 0 14 -91 148 -154 226 -153 192 -301 332 -473 446 -181 122
-352 190 -607 245 -130 28 -548 28 -664 0 -158 -38 -224 -65 -446 -185 -69
-38 -127 -86 -238 -198 -156 -157 -328 -374 -328 -413 0 -8 -4 -16 -9 -20 -6
-3 -16 -18 -24 -33 -101 -195 -207 -424 -207 -447 0 -7 -13 -43 -30 -80 -16
-37 -30 -75 -30 -85 0 -31 -37 -107 -57 -115 -10 -4 -68 -9 -129 -12 -126 -6
-129 -5 -112 68 31 133 136 467 181 574 67 162 202 412 248 461 10 11 19 24
19 28 0 8 82 117 110 147 8 9 64 69 125 134 138 148 317 283 465 349 36 16 88
39 115 51 77 34 207 69 410 109 95 19 332 19 463 1z m79 -540 c19 -8 50 -15
67 -15 51 0 300 -91 366 -134 296 -191 445 -322 569 -502 23 -32 63 -81 90
-109 33 -34 54 -67 66 -105 10 -30 28 -75 41 -100 32 -63 64 -160 64 -190 0
-21 -13 -35 -66 -70 -133 -91 -115 -85 -223 -72 -124 16 -357 15 -446 -2 -70
-13 -220 -78 -307 -132 -73 -47 -126 -92 -249 -214 -164 -164 -268 -307 -366
-502 -25 -52 -39 -69 -60 -74 -15 -4 -133 -4 -262 -1 -225 6 -237 8 -253 28
-10 12 -18 29 -18 38 0 19 -46 135 -84 208 -29 59 -130 188 -215 276 -59 62
-232 184 -291 206 -19 7 -50 19 -68 27 -18 8 -39 14 -47 14 -8 0 -22 11 -30
24 -14 21 -14 28 -1 62 8 22 17 53 21 69 4 17 17 52 31 78 13 27 24 55 24 63
0 9 11 39 24 67 13 29 34 77 47 107 12 30 35 75 50 100 23 39 69 121 119 209
77 135 270 334 455 466 87 62 223 135 253 135 10 0 27 7 38 15 10 8 30 15 44
15 14 0 43 7 65 15 59 21 501 21 552 0z m1811 -1326 c36 -22 54 -91 92 -339
13 -89 20 -210 25 -420 6 -286 6 -298 -17 -389 -28 -112 -46 -131 -84 -88 -28
32 -30 65 -13 197 20 165 -42 450 -126 580 -47 71 -64 116 -81 209 -8 47 -20
104 -26 126 -19 73 -21 127 -7 137 21 14 210 4 237 -13z m356 -121 c19 -13 54
-34 77 -48 209 -123 474 -372 593 -557 126 -197 257 -545 227 -602 -5 -9 -31
-27 -58 -39 -26 -13 -55 -27 -63 -32 -8 -6 -46 -28 -83 -51 -37 -22 -82 -53
-100 -68 -18 -14 -57 -45 -87 -67 -126 -94 -345 -325 -419 -441 -20 -32 -40
-53 -51 -53 -26 0 -29 53 -40 685 -11 633 -24 951 -45 1055 -26 135 -37 219
-30 230 10 16 42 12 79 -12z m-1212 -63 c263 -49 440 -174 541 -381 22 -44 43
-87 48 -97 25 -48 51 -148 66 -252 9 -67 -13 -189 -77 -430 -5 -16 -30 -88
-55 -160 -26 -71 -56 -154 -67 -183 -19 -55 -34 -143 -45 -266 -14 -166 52
-552 123 -713 8 -17 14 -34 14 -37 0 -3 18 -44 40 -91 22 -47 40 -88 40 -91 0
-7 11 -32 74 -167 25 -54 46 -101 46 -105 0 -3 8 -24 19 -46 41 -92 96 -260
125 -386 84 -365 52 -710 -92 -1010 -79 -164 -226 -363 -387 -525 -177 -179
-468 -402 -656 -504 -138 -74 -181 -94 -379 -173 -41 -16 -90 -36 -108 -44
-39 -17 -59 -18 -67 -3 -9 13 -34 293 -35 379 0 72 10 93 69 145 42 36 134
121 251 230 122 114 178 165 325 300 223 203 323 314 307 339 -4 7 -29 32 -57
57 -27 24 -131 123 -230 220 -99 97 -193 188 -210 203 -16 15 -196 192 -400
394 -623 618 -771 762 -785 762 -15 0 -725 -709 -837 -835 -107 -121 -125
-144 -121 -154 1 -5 55 -64 118 -131 72 -76 117 -132 121 -151 4 -15 7 -180 8
-365 1 -185 6 -359 11 -385 5 -27 14 -212 20 -411 5 -200 13 -431 16 -514 l7
-151 -25 -6 c-32 -8 -96 4 -168 33 -30 12 -97 37 -148 55 -182 66 -509 232
-603 306 -20 16 -40 29 -44 29 -10 0 -102 78 -193 165 -90 86 -282 331 -282
360 0 4 -9 19 -20 34 -74 105 -179 358 -231 558 -21 80 -23 109 -22 303 1 244
10 300 75 495 5 17 13 44 18 60 9 33 28 88 41 120 17 41 71 201 75 225 3 14
18 68 34 120 74 249 82 302 87 610 5 286 8 260 -62 650 -31 174 -37 312 -15
334 18 18 143 46 205 46 35 0 52 -7 87 -35 58 -47 94 -66 111 -60 7 3 21 24
31 45 21 48 59 80 95 80 14 0 55 -20 93 -46 47 -32 80 -48 111 -51 49 -6 57 0
85 57 24 49 49 49 102 1 109 -98 143 -94 148 18 4 99 -26 181 -77 213 -35 22
-44 23 -242 22 -182 -2 -474 -20 -699 -43 -41 -5 -79 -6 -84 -3 -10 6 -1 152
14 221 6 25 16 69 22 96 41 189 127 356 231 451 67 60 183 124 284 156 98 31
321 31 443 -1 319 -83 559 -362 622 -721 6 -36 15 -71 21 -77 7 -10 107 -13
438 -13 413 0 429 1 439 19 5 11 10 28 10 37 0 16 56 143 97 219 60 113 159
241 278 361 175 176 298 255 450 289 83 19 287 18 387 0z m849 -1301 c40 -14
84 -13 125 3 8 3 17 -4 23 -19 5 -14 14 -202 20 -419 9 -317 16 -416 32 -509
23 -129 111 -404 162 -507 18 -37 39 -84 47 -103 7 -19 26 -63 41 -98 16 -34
29 -69 29 -78 0 -9 8 -31 18 -48 29 -48 63 -181 87 -335 25 -165 23 -691 -4
-871 -19 -124 -32 -180 -51 -220 -4 -9 -11 -30 -14 -47 -4 -17 -14 -37 -22
-44 -8 -6 -14 -18 -14 -26 0 -17 -52 -119 -90 -178 -15 -22 -43 -65 -63 -95
-46 -70 -238 -283 -303 -335 -27 -22 -62 -52 -79 -67 -46 -41 -176 -132 -220
-153 -22 -11 -51 -28 -65 -38 -53 -38 -101 -67 -110 -67 -5 0 -33 -11 -62 -24
-65 -30 -125 -55 -158 -66 -14 -5 -50 -18 -80 -30 -98 -38 -164 -58 -240 -75
-41 -9 -95 -21 -120 -27 -25 -6 -72 -14 -105 -18 -33 -4 -71 -11 -85 -15 l-25
-8 24 27 c14 14 28 26 33 26 10 0 110 45 227 103 82 40 284 169 327 208 11 11
24 19 30 19 5 0 54 39 109 85 55 47 127 107 160 134 70 58 292 296 365 393
126 169 237 389 290 578 42 150 51 228 52 440 0 200 -8 303 -37 425 -7 33 -18
80 -23 105 -12 56 -84 257 -117 328 -14 29 -25 56 -25 60 0 4 -14 34 -30 67
-17 33 -30 65 -30 71 0 6 -36 94 -81 195 -44 101 -85 198 -91 214 -6 17 -17
45 -24 63 -8 18 -14 48 -14 67 0 19 -6 54 -14 77 -44 129 -47 418 -6 543 13
39 29 84 36 100 35 83 64 153 73 178 12 31 30 34 92 11z m1864 -11 c120 -27
145 -48 165 -137 12 -53 -5 -175 -40 -291 -47 -155 -157 -331 -296 -471 -65
-65 -208 -183 -234 -192 -8 -3 -26 -15 -40 -27 -80 -71 -355 -183 -554 -226
-55 -11 -139 -22 -187 -22 -80 -2 -90 0 -113 22 -14 14 -26 28 -26 32 0 5 -11
32 -24 61 -14 29 -39 95 -56 147 -24 73 -29 99 -21 115 27 56 71 158 71 166 0
4 19 34 43 66 23 33 60 85 81 117 46 68 274 306 340 357 26 19 78 60 116 90
82 65 153 105 175 97 12 -5 15 -23 15 -81 0 -74 0 -75 -37 -105 -282 -227
-290 -234 -378 -335 -33 -38 -79 -89 -102 -115 -24 -25 -62 -84 -85 -130 -40
-80 -43 -89 -42 -165 1 -86 14 -125 54 -161 19 -17 39 -21 132 -23 83 -3 118
0 142 11 17 8 56 27 86 41 180 84 354 211 533 386 148 144 235 250 264 321 12
29 18 70 18 119 0 67 -3 80 -30 119 -49 73 -81 86 -215 86 -113 0 -114 0 -120
24 -11 47 0 88 28 102 58 28 218 29 337 2z m-220 -353 c14 -23 -55 -112 -194
-250 -140 -139 -174 -167 -321 -264 -84 -55 -237 -129 -250 -121 -5 3 -10 13
-10 21 0 20 106 161 131 174 11 6 57 17 103 25 46 7 98 21 117 30 79 41 203
201 223 287 13 57 177 137 201 98z m336 -822 c60 -62 109 -119 109 -126 0 -18
-131 -141 -157 -148 -19 -5 -45 13 -138 96 -63 56 -118 106 -121 111 -3 5 -1
17 4 26 15 26 165 153 181 153 8 0 63 -51 122 -112z m377 -370 c88 -82 302
-291 680 -664 176 -174 262 -266 262 -280 0 -13 -24 -42 -64 -77 -134 -119
-161 -197 -111 -326 14 -39 25 -80 23 -91 -2 -12 -20 -31 -41 -43 -33 -18 -39
-19 -47 -7 -5 8 -10 80 -10 160 0 100 -4 150 -12 158 -7 7 -44 12 -94 12 -46
0 -118 5 -161 11 -96 13 -131 38 -298 210 -168 174 -166 170 -94 249 71 79
119 146 119 167 0 12 -38 55 -102 115 -199 184 -318 306 -318 326 0 10 31 48
69 85 91 88 100 88 199 -5z m-4687 -147 c78 -80 93 -105 80 -129 -5 -10 -70
-77 -143 -149 -73 -72 -214 -215 -312 -317 -99 -102 -186 -186 -193 -186 -25
0 -163 133 -163 157 0 26 55 88 382 426 167 172 257 257 270 257 12 0 45 -25
79 -59z m612 -599 c177 -175 351 -345 386 -377 71 -66 278 -290 291 -316 7
-12 -35 -58 -202 -215 -116 -109 -252 -238 -302 -286 -93 -88 -164 -148 -175
-148 -3 0 -13 6 -22 13 -35 27 -961 943 -970 960 -17 30 29 84 350 412 223
227 275 275 301 275 13 0 139 -117 343 -318z m5217 -418 c16 -46 -3 -81 -65
-121 -73 -48 -115 -41 -115 18 0 31 14 49 88 114 60 51 72 50 92 -11z m-6259
-213 c65 -65 119 -123 119 -128 0 -6 -22 -40 -48 -76 -27 -36 -59 -89 -71
-117 -21 -48 -21 -56 -10 -133 15 -106 37 -147 119 -228 75 -74 80 -88 80
-243 0 -45 7 -124 15 -176 8 -52 15 -136 15 -186 0 -74 3 -93 16 -98 23 -9
127 -7 141 2 18 11 31 130 43 382 12 254 19 293 52 319 13 11 37 38 52 60 17
24 37 41 48 41 18 0 247 -210 277 -254 9 -14 16 -83 22 -220 5 -111 13 -253
19 -316 l9 -115 -25 -22 c-15 -14 -38 -23 -58 -23 -18 0 -55 -7 -82 -15 -27
-8 -65 -15 -85 -15 -19 0 -60 -8 -90 -17 -74 -24 -491 -23 -583 0 -32 9 -63
20 -67 24 -5 5 -13 170 -19 368 -6 198 -15 477 -21 620 -6 143 -13 356 -16
473 -5 195 -4 212 11 212 10 0 71 -53 137 -119z m349 -358 c18 -23 21 -37 17
-77 -5 -58 -32 -86 -81 -86 -81 0 -119 90 -70 168 12 18 24 22 64 22 41 0 52
-4 70 -27z"/>
<path d="M1141 5793 c-60 -31 -92 -72 -111 -145 -12 -45 -11 -51 14 -102 30
-62 68 -90 134 -101 75 -12 137 2 182 43 37 33 42 43 47 94 11 112 -20 172
-112 214 -65 31 -89 30 -154 -3z"/>
<path d="M3642 5733 c-31 -11 -53 -29 -77 -62 -33 -44 -35 -50 -35 -132 0 -99
11 -121 89 -170 37 -24 56 -29 105 -29 76 0 115 22 156 87 58 91 58 144 2 233
-51 80 -142 108 -240 73z"/>
<path d="M1940 5424 c-19 -8 -47 -27 -62 -41 -25 -24 -28 -34 -28 -88 0 -54 3
-64 28 -88 15 -14 47 -31 72 -38 40 -11 51 -10 92 9 47 20 82 61 94 110 9 33
-14 78 -55 111 -47 37 -95 46 -141 25z"/>
</g>
</svg>
